<svg xmlns="http://www.w3.org/2000/svg" version="1.1" xmlns:xlink="http://www.w3.org/1999/xlink" xmlns:svgjs="http://svgjs.dev/svgjs" width="1000" height="1000"><style>
    #light-icon {
      display: inline;
    }
    #dark-icon {
      display: none;
    }

    @media (prefers-color-scheme: dark) {
      #light-icon {
        display: none;
      }
      #dark-icon {
        display: inline;
      }
    }
  </style><g id="light-icon"><svg xmlns="http://www.w3.org/2000/svg" version="1.1" xmlns:xlink="http://www.w3.org/1999/xlink" xmlns:svgjs="http://svgjs.dev/svgjs" width="1000" height="1000"><g><g transform="matrix(0.7412898443291327,0,0,0.7412898443291327,129.7257227575982,0)"><svg xmlns="http://www.w3.org/2000/svg" version="1.1" xmlns:xlink="http://www.w3.org/1999/xlink" xmlns:svgjs="http://svgjs.dev/svgjs" width="999" height="1349"><svg width="999" height="1349" viewBox="0 0 999 1349" fill="none" xmlns="http://www.w3.org/2000/svg">
<g clip-path="url(#clip0_84_1925)">
<path d="M73.2067 607.279C211.93 533.584 303.633 390.282 321.837 235.591C331.085 156.931 319.403 59.0924 246.099 13.0451C220.886 -2.72585 188.274 -5.06229 162.476 10.806C140.67 24.2405 127.625 48.0916 120.811 72.1375C108.253 116.432 104.651 165.108 104.359 211.058C103.774 304.418 121.784 397.389 141.838 488.218C161.795 578.463 182.335 668.416 196.256 759.829C198.009 771.511 199.761 783.29 201.416 795.07C201.708 797.406 202.097 799.743 202.389 802.079C203.46 810.159 201.513 795.167 202.584 803.247C203.363 809.478 204.239 815.806 205.018 822.036C207.841 844.816 210.372 867.597 212.514 890.474C217.089 937.69 220.399 985.1 222.346 1032.51C224.293 1079.92 225.364 1123.83 224.196 1169.48C224.001 1178.63 223.514 1187.79 222.638 1196.84C222.443 1198.4 222.638 1201.22 222.054 1202.68C225.267 1195.87 223.027 1197.13 222.054 1201.32C220.983 1206.38 220.107 1211.34 218.744 1216.31C217.576 1220.59 215.921 1224.78 214.753 1228.97C212.806 1235.59 218.744 1221.86 215.24 1227.8C214.266 1229.45 213.585 1231.2 212.611 1232.86C211.443 1235.1 209.885 1237.14 208.717 1239.38C205.115 1246.2 210.08 1238.99 209.983 1238.21C210.177 1239.87 200.929 1246.49 201.221 1246.98C200.734 1246.39 209.593 1241.72 204.823 1244.05C202.974 1244.93 201.319 1246.39 199.566 1247.36C198.203 1248.14 196.84 1248.83 195.478 1249.6C187.592 1254.28 198.106 1247.75 198.495 1248.44C198.495 1248.44 189.345 1251.16 188.079 1251.55C186.229 1252.14 179.22 1253.3 187.008 1251.94C194.796 1250.58 187.787 1251.75 185.937 1251.65C184.088 1251.55 181.849 1251.26 179.999 1251.45C175.132 1251.94 185.256 1251.65 185.645 1252.23C185.451 1252.04 180.875 1250.97 179.999 1250.87C173.477 1249.51 182.53 1248.53 183.601 1252.52C183.504 1252.04 180.388 1250.67 179.902 1250.38C174.742 1246.88 187.787 1256.61 182.822 1252.72C182.53 1252.52 179.61 1249.7 179.707 1249.51C179.026 1250.38 186.619 1258.07 180.388 1249.21C176.884 1244.35 182.433 1252.33 181.654 1252.43C181.167 1252.43 179.902 1246.2 179.61 1245.32C176.981 1237.73 179.61 1247.17 179.512 1247.07C179.026 1246.68 179.123 1242.01 179.026 1241.33C178.441 1231.5 178.831 1221.76 179.318 1211.93C180.291 1189.73 181.654 1167.54 183.309 1145.34C184.964 1123.14 187.008 1101.05 189.345 1078.85C190.415 1068.53 191.584 1058.21 192.849 1047.89C193.433 1042.73 194.115 1037.57 194.796 1032.41C195.088 1030.17 195.38 1028.03 195.672 1025.79C197.522 1011.68 194.796 1031.44 195.964 1023.26C202.097 979.94 209.107 936.814 217.576 893.784C234.515 807.92 256.516 723.127 283.287 639.794C296.916 597.446 311.81 555.488 327.97 514.016C331.767 504.378 335.563 494.74 339.457 485.103C341.404 480.332 343.351 475.465 345.396 470.695C346.272 468.65 347.148 466.606 347.927 464.561C353.378 451.419 345.785 469.429 349.095 461.836C357.856 441.392 366.813 421.045 376.158 400.796C393.389 363.316 411.107 325.836 432.231 290.302C437.002 282.222 441.966 274.337 447.223 266.548C449.852 262.654 452.48 258.858 455.206 255.061C456.374 253.406 457.64 251.848 458.71 250.291C452.772 258.566 458.321 250.875 459.684 249.22C465.914 241.529 472.534 234.13 479.543 227.121C482.366 224.298 485.19 221.572 488.11 218.944C490.057 217.191 492.004 215.439 494.048 213.687C495.022 212.908 503.589 205.898 498.429 209.987C493.951 213.492 498.916 209.695 499.597 209.208C501.642 207.845 503.686 206.385 505.73 205.022C509.332 202.588 513.129 200.349 516.828 198.208C520.527 196.066 524.519 194.022 528.413 192.172C530.457 191.198 533.183 189.543 535.227 189.057C531.82 189.835 528.51 191.685 534.059 189.738C542.334 186.915 550.608 184.286 559.175 182.437C561.609 181.95 564.043 181.561 566.476 181.074C574.167 179.516 565.016 182.437 564.529 181.269C564.724 181.755 578.061 180.392 579.229 180.392C583.512 180.392 587.699 180.392 591.982 180.782C592.761 180.782 596.947 181.658 597.433 181.269C595.097 183.216 588.283 179.419 595.194 181.074C599.283 182.047 603.372 182.826 607.46 183.994C609.797 184.676 612.036 185.357 614.275 186.136C615.443 186.525 616.514 186.915 617.682 187.402C620.992 188.667 619.921 188.278 614.372 186.039C614.47 185.844 623.231 190.712 624.01 191.101C626.152 192.367 628.099 193.827 630.24 194.995C633.55 196.845 634.524 200.252 628.391 193.243C633.55 199.181 640.365 204.146 645.719 209.987C653.117 217.873 642.506 204.341 646.79 211.447C648.737 214.563 650.878 217.678 652.728 220.793C654.578 223.908 656.33 227.316 657.985 230.626C657.985 230.431 660.905 236.077 660.711 236.467C661.003 235.883 656.914 226.537 659.445 233.838C665.091 249.707 668.985 265.672 671.808 282.222C673.269 291.081 670.835 273.071 672.1 284.558C672.49 288.55 672.879 292.639 673.171 296.63C673.853 305.878 674.242 315.127 674.437 324.473C674.729 341.12 674.242 357.767 673.366 374.414C672.198 395.539 670.932 416.567 669.083 437.595C668.207 447.622 667.233 457.747 666.065 467.774C665.675 470.987 663.923 483.837 665.383 474.102C664.605 479.748 663.728 485.492 662.755 491.138C659.25 512.264 654.578 533.194 648.347 553.735C645.427 563.276 642.019 572.622 638.515 581.967C637.833 583.72 634.718 590.437 638.515 582.162C637.639 584.109 636.763 586.056 635.886 588.003C633.453 593.26 630.922 598.42 628.196 603.482C624.205 610.978 619.726 618.279 615.054 625.289C612.717 628.793 610.089 632.201 607.655 635.705C604.443 640.378 609.699 633.174 609.699 633.077C609.505 634.634 605.124 638.723 603.859 640.086C598.31 646.609 592.469 652.742 586.336 658.68C583.318 661.601 580.105 664.521 576.893 667.247C575.627 668.318 572.999 671.141 571.344 671.92C574.264 670.655 577.477 667.442 572.609 670.947C565.308 676.204 557.91 681.071 550.024 685.452C546.422 687.496 542.723 689.346 539.024 691.196C537.466 691.975 535.811 692.656 534.156 693.435C528.802 695.966 543.015 690.417 534.351 693.24C526.466 695.674 518.775 698.4 510.695 700.152C508.748 700.541 496.093 701.807 503.199 701.612C510.306 701.418 502.712 701.515 500.863 701.612C497.942 701.807 494.925 702.002 492.004 702.002C487.623 702.002 483.145 701.515 478.764 701.612C472.826 701.71 481.49 702.196 481.685 702.196C480.03 702.488 475.649 701.028 473.8 700.541C471.95 700.055 470.003 699.179 468.056 698.887C461.631 697.621 473.897 703.073 468.738 699.081C468.348 698.789 463.481 696.453 463.578 696.063C463.773 694.992 470.003 703.073 464.746 696.453C460.95 691.682 469.224 705.214 466.888 699.665C466.401 698.594 465.33 697.037 464.649 696.063C466.985 705.701 460.463 690.417 464.649 696.063C464.162 694.311 463.967 692.169 463.286 690.514C461.436 686.328 464.259 695.674 463.967 696.355C464.844 694.408 463.967 685.355 463.967 683.213C463.675 678.345 463.578 688.47 463.189 688.762C463.578 688.373 464.162 683.894 464.454 682.921C465.038 680.779 469.419 670.168 465.914 677.372C462.41 684.576 467.667 674.354 468.835 672.407C469.224 671.725 472.242 667.539 472.145 667.345C472.729 668.708 464.844 675.23 470.198 670.265C471.561 669 473.118 667.442 474.384 666.079C477.012 663.256 477.694 665.495 474.092 666.079L471.561 668.123C473.118 667.053 474.676 666.079 476.331 665.106C477.888 664.132 479.543 663.256 481.198 662.38C489.668 657.512 480.225 662.38 479.738 662.866C480.711 661.893 485.968 660.822 486.747 660.627C488.499 660.141 490.349 659.654 492.101 659.264C503.004 656.831 492.101 659.264 492.004 658.972C492.004 658.291 516.244 658.486 518.386 659.167C517.12 658.778 507.483 657.025 516.731 659.167C518.58 659.556 520.527 659.946 522.377 660.335C527.342 661.504 532.307 662.866 537.174 664.521C539.608 665.3 541.944 666.274 544.378 667.15C549.83 669.097 541.555 665.982 541.555 665.982C544.475 665.592 553.432 671.92 555.963 673.38C564.919 678.443 573.583 684.089 581.955 690.125C583.61 691.293 585.265 692.559 586.92 693.824C585.362 692.559 579.424 688.47 586.92 693.824C590.716 696.842 594.416 699.86 598.212 702.975C606.195 709.595 614.08 716.41 621.966 723.224C639.586 738.314 657.498 753.111 676.481 766.351C712.695 791.565 756.21 809.575 800.991 808.796C841.878 808.115 882.278 793.22 914.987 768.882C947.697 744.544 975.344 713.002 993.743 676.009C1005.04 653.229 1000.56 622.271 976.317 609.42C954.317 597.836 921.802 602.508 909.73 626.846C905.739 634.927 901.261 642.812 896.296 650.405C894.057 653.813 891.916 658.096 888.995 660.822C896.102 654.299 891.721 657.415 889.871 659.556C887.827 661.796 885.977 664.229 883.933 666.468C877.897 673.186 871.375 679.611 864.463 685.549C863.1 686.718 861.64 687.788 860.277 689.054C855.117 693.532 867.286 684.381 861.542 687.983C856.967 690.806 852.684 694.019 848.108 696.842C844.506 698.984 840.904 700.931 837.205 702.781C836.718 703.073 832.532 704.63 832.435 705.02C832.727 703.267 841.196 701.71 834.285 704.143C829.904 705.701 825.523 707.259 820.948 708.427C818.027 709.206 809.85 712.613 807.319 711.445C807.514 711.542 819.682 710.569 809.85 711.055C807.514 711.153 805.177 711.348 802.841 711.445C798.752 711.542 794.566 711.445 790.477 711.25C789.699 711.25 785.61 711.25 785.123 710.763C786.097 711.932 793.301 712.613 786.194 710.666C780.45 709.108 774.609 707.94 768.963 706.091C765.556 704.922 755.237 700.347 763.901 704.436C759.034 702.196 754.263 699.86 749.591 697.232C740.732 692.364 732.262 686.912 723.988 681.071C721.749 679.514 719.607 677.956 717.368 676.301C716.2 675.425 709.483 670.168 714.253 673.965C718.731 677.469 713.474 673.283 712.793 672.796C710.748 671.141 708.607 669.389 706.562 667.734C697.995 660.627 689.623 653.423 681.251 646.219C645.329 615.456 608.531 585.959 563.166 570.675C517.802 555.39 465.817 556.851 425.709 582.065C388.716 605.332 364.184 649.335 366.521 693.532C369.246 744.155 403.221 786.308 454.135 795.849C500.473 804.513 546.325 795.751 588.477 775.502C667.233 737.73 718.828 659.264 743.263 577.684C756.697 533 762.635 486.271 766.627 439.931C770.034 401.088 772.857 361.856 772.176 322.915C770.618 242.308 750.369 158.683 679.791 111.078C601.425 58.1188 496.287 86.2534 428.727 142.523C361.166 198.792 324.076 282.806 288.836 360.103C250.188 444.896 216.213 531.831 187.884 620.616C131.811 796.335 97.6414 979.259 85.278 1163.25C82.2602 1208.42 73.5961 1263.04 99.7831 1303.34C125.97 1343.65 178.052 1358.35 223.514 1343.06C268.976 1327.78 300.712 1289.13 313.173 1242.3C324.855 1198.49 322.713 1151.08 322.129 1106.11C319.793 909.653 293.119 715.047 249.993 523.654C239.382 476.828 228.674 429.904 219.815 382.689C217.868 372.077 215.921 361.466 214.169 350.757C213.195 344.722 212.222 338.589 211.248 332.553C210.859 330.314 210.567 327.977 210.275 325.738C209.788 322.233 208.912 315.516 209.788 322.72C206.673 299.259 204.434 275.699 203.266 252.14C202.097 228.581 202 206.677 203.071 183.994C203.655 172.702 204.531 161.311 205.699 150.019C205.991 147.001 206.381 143.983 206.77 140.965C206.673 141.841 205.602 148.364 206.575 142.62C207.744 135.903 208.717 129.088 209.983 122.371C211.832 112.636 213.682 102.803 216.797 93.3601C220.302 82.8461 213.293 98.4224 217.771 91.3157C219.718 88.1031 222.346 86.4481 215.532 93.3601C220.107 88.7846 214.266 93.7495 212.319 94.9177C219.036 90.6342 209.885 95.7939 208.814 96.1833C205.505 97.1568 200.637 97.5462 197.133 96.4753C195.672 96.0859 187.69 91.8998 195.964 96.1833C196.84 96.5727 202.681 99.7853 197.23 96.67C191.778 93.5548 197.814 97.2541 199.177 98.5197C200.929 100.077 202.487 101.635 204.142 103.29C205.31 104.556 206.478 105.821 207.646 107.087C215.045 114.972 204.336 101.44 207.354 106.697C209.399 110.202 211.735 113.415 213.682 116.919C214.753 118.964 215.726 121.008 216.894 123.052C221.178 131.132 216.7 121.592 216.213 121.008C221.178 126.849 222.735 140.673 224.293 148.072C225.169 152.16 225.753 156.347 226.532 160.435C227.798 167.347 225.753 151.187 226.24 158.196C226.337 159.949 226.629 161.798 226.824 163.551C227.7 173.091 227.992 182.631 227.895 192.075C227.798 201.518 227.408 210.279 226.727 219.333C226.435 223.519 226.045 227.803 225.559 231.989C225.267 234.228 225.267 236.954 224.682 239.193C227.408 227.413 225.072 235.98 224.682 238.803C221.762 257.3 217.576 275.699 212.222 293.612C209.788 301.692 207.16 309.772 204.239 317.755C202.584 322.331 200.832 326.809 199.08 331.287C196.451 337.907 200.54 331.287 199.761 329.73C200.15 330.606 197.23 335.376 196.84 336.349C189.15 353.483 180.291 370.13 170.459 386.193C165.689 393.982 160.724 401.575 155.467 408.974C153.033 412.478 150.502 415.886 147.971 419.293C146.998 420.559 142.033 426.692 146.219 421.629C150.794 415.983 143.396 425.037 143.201 425.231C131.714 439.25 119.35 452.685 106.111 465.146C99.491 471.376 92.7739 477.412 85.7648 483.253C82.5523 485.979 79.3397 488.802 75.8351 491.236C86.0568 484.032 73.2067 493.085 71.1624 494.546C56.3652 505.157 40.8867 514.6 24.824 523.167C2.33631 535.141 -6.52249 568.241 7.39848 589.755C22.1956 612.633 49.9402 620.032 73.9855 607.181L73.2067 607.279Z" fill="#277857"></path>
</g>
<defs>
<clipPath id="clip0_84_1925">
<rect width="999" height="1349" fill="white"></rect>
</clipPath>
</defs>
</svg></svg></g></g></svg></g><g id="dark-icon"><svg xmlns="http://www.w3.org/2000/svg" version="1.1" xmlns:xlink="http://www.w3.org/1999/xlink" xmlns:svgjs="http://svgjs.dev/svgjs" width="1000" height="1000"><g clip-path="url(#SvgjsClipPath1059)"><rect width="1000" height="1000" fill="#f6f2e2"></rect><g transform="matrix(0.5930318754633062,0,0,0.5930318754633062,203.7805782060786,100)"><svg xmlns="http://www.w3.org/2000/svg" version="1.1" xmlns:xlink="http://www.w3.org/1999/xlink" xmlns:svgjs="http://svgjs.dev/svgjs" width="999" height="1349"><svg width="999" height="1349" viewBox="0 0 999 1349" fill="none" xmlns="http://www.w3.org/2000/svg">
<g clip-path="url(#clip0_84_1925)">
<path d="M73.2067 607.279C211.93 533.584 303.633 390.282 321.837 235.591C331.085 156.931 319.403 59.0924 246.099 13.0451C220.886 -2.72585 188.274 -5.06229 162.476 10.806C140.67 24.2405 127.625 48.0916 120.811 72.1375C108.253 116.432 104.651 165.108 104.359 211.058C103.774 304.418 121.784 397.389 141.838 488.218C161.795 578.463 182.335 668.416 196.256 759.829C198.009 771.511 199.761 783.29 201.416 795.07C201.708 797.406 202.097 799.743 202.389 802.079C203.46 810.159 201.513 795.167 202.584 803.247C203.363 809.478 204.239 815.806 205.018 822.036C207.841 844.816 210.372 867.597 212.514 890.474C217.089 937.69 220.399 985.1 222.346 1032.51C224.293 1079.92 225.364 1123.83 224.196 1169.48C224.001 1178.63 223.514 1187.79 222.638 1196.84C222.443 1198.4 222.638 1201.22 222.054 1202.68C225.267 1195.87 223.027 1197.13 222.054 1201.32C220.983 1206.38 220.107 1211.34 218.744 1216.31C217.576 1220.59 215.921 1224.78 214.753 1228.97C212.806 1235.59 218.744 1221.86 215.24 1227.8C214.266 1229.45 213.585 1231.2 212.611 1232.86C211.443 1235.1 209.885 1237.14 208.717 1239.38C205.115 1246.2 210.08 1238.99 209.983 1238.21C210.177 1239.87 200.929 1246.49 201.221 1246.98C200.734 1246.39 209.593 1241.72 204.823 1244.05C202.974 1244.93 201.319 1246.39 199.566 1247.36C198.203 1248.14 196.84 1248.83 195.478 1249.6C187.592 1254.28 198.106 1247.75 198.495 1248.44C198.495 1248.44 189.345 1251.16 188.079 1251.55C186.229 1252.14 179.22 1253.3 187.008 1251.94C194.796 1250.58 187.787 1251.75 185.937 1251.65C184.088 1251.55 181.849 1251.26 179.999 1251.45C175.132 1251.94 185.256 1251.65 185.645 1252.23C185.451 1252.04 180.875 1250.97 179.999 1250.87C173.477 1249.51 182.53 1248.53 183.601 1252.52C183.504 1252.04 180.388 1250.67 179.902 1250.38C174.742 1246.88 187.787 1256.61 182.822 1252.72C182.53 1252.52 179.61 1249.7 179.707 1249.51C179.026 1250.38 186.619 1258.07 180.388 1249.21C176.884 1244.35 182.433 1252.33 181.654 1252.43C181.167 1252.43 179.902 1246.2 179.61 1245.32C176.981 1237.73 179.61 1247.17 179.512 1247.07C179.026 1246.68 179.123 1242.01 179.026 1241.33C178.441 1231.5 178.831 1221.76 179.318 1211.93C180.291 1189.73 181.654 1167.54 183.309 1145.34C184.964 1123.14 187.008 1101.05 189.345 1078.85C190.415 1068.53 191.584 1058.21 192.849 1047.89C193.433 1042.73 194.115 1037.57 194.796 1032.41C195.088 1030.17 195.38 1028.03 195.672 1025.79C197.522 1011.68 194.796 1031.44 195.964 1023.26C202.097 979.94 209.107 936.814 217.576 893.784C234.515 807.92 256.516 723.127 283.287 639.794C296.916 597.446 311.81 555.488 327.97 514.016C331.767 504.378 335.563 494.74 339.457 485.103C341.404 480.332 343.351 475.465 345.396 470.695C346.272 468.65 347.148 466.606 347.927 464.561C353.378 451.419 345.785 469.429 349.095 461.836C357.856 441.392 366.813 421.045 376.158 400.796C393.389 363.316 411.107 325.836 432.231 290.302C437.002 282.222 441.966 274.337 447.223 266.548C449.852 262.654 452.48 258.858 455.206 255.061C456.374 253.406 457.64 251.848 458.71 250.291C452.772 258.566 458.321 250.875 459.684 249.22C465.914 241.529 472.534 234.13 479.543 227.121C482.366 224.298 485.19 221.572 488.11 218.944C490.057 217.191 492.004 215.439 494.048 213.687C495.022 212.908 503.589 205.898 498.429 209.987C493.951 213.492 498.916 209.695 499.597 209.208C501.642 207.845 503.686 206.385 505.73 205.022C509.332 202.588 513.129 200.349 516.828 198.208C520.527 196.066 524.519 194.022 528.413 192.172C530.457 191.198 533.183 189.543 535.227 189.057C531.82 189.835 528.51 191.685 534.059 189.738C542.334 186.915 550.608 184.286 559.175 182.437C561.609 181.95 564.043 181.561 566.476 181.074C574.167 179.516 565.016 182.437 564.529 181.269C564.724 181.755 578.061 180.392 579.229 180.392C583.512 180.392 587.699 180.392 591.982 180.782C592.761 180.782 596.947 181.658 597.433 181.269C595.097 183.216 588.283 179.419 595.194 181.074C599.283 182.047 603.372 182.826 607.46 183.994C609.797 184.676 612.036 185.357 614.275 186.136C615.443 186.525 616.514 186.915 617.682 187.402C620.992 188.667 619.921 188.278 614.372 186.039C614.47 185.844 623.231 190.712 624.01 191.101C626.152 192.367 628.099 193.827 630.24 194.995C633.55 196.845 634.524 200.252 628.391 193.243C633.55 199.181 640.365 204.146 645.719 209.987C653.117 217.873 642.506 204.341 646.79 211.447C648.737 214.563 650.878 217.678 652.728 220.793C654.578 223.908 656.33 227.316 657.985 230.626C657.985 230.431 660.905 236.077 660.711 236.467C661.003 235.883 656.914 226.537 659.445 233.838C665.091 249.707 668.985 265.672 671.808 282.222C673.269 291.081 670.835 273.071 672.1 284.558C672.49 288.55 672.879 292.639 673.171 296.63C673.853 305.878 674.242 315.127 674.437 324.473C674.729 341.12 674.242 357.767 673.366 374.414C672.198 395.539 670.932 416.567 669.083 437.595C668.207 447.622 667.233 457.747 666.065 467.774C665.675 470.987 663.923 483.837 665.383 474.102C664.605 479.748 663.728 485.492 662.755 491.138C659.25 512.264 654.578 533.194 648.347 553.735C645.427 563.276 642.019 572.622 638.515 581.967C637.833 583.72 634.718 590.437 638.515 582.162C637.639 584.109 636.763 586.056 635.886 588.003C633.453 593.26 630.922 598.42 628.196 603.482C624.205 610.978 619.726 618.279 615.054 625.289C612.717 628.793 610.089 632.201 607.655 635.705C604.443 640.378 609.699 633.174 609.699 633.077C609.505 634.634 605.124 638.723 603.859 640.086C598.31 646.609 592.469 652.742 586.336 658.68C583.318 661.601 580.105 664.521 576.893 667.247C575.627 668.318 572.999 671.141 571.344 671.92C574.264 670.655 577.477 667.442 572.609 670.947C565.308 676.204 557.91 681.071 550.024 685.452C546.422 687.496 542.723 689.346 539.024 691.196C537.466 691.975 535.811 692.656 534.156 693.435C528.802 695.966 543.015 690.417 534.351 693.24C526.466 695.674 518.775 698.4 510.695 700.152C508.748 700.541 496.093 701.807 503.199 701.612C510.306 701.418 502.712 701.515 500.863 701.612C497.942 701.807 494.925 702.002 492.004 702.002C487.623 702.002 483.145 701.515 478.764 701.612C472.826 701.71 481.49 702.196 481.685 702.196C480.03 702.488 475.649 701.028 473.8 700.541C471.95 700.055 470.003 699.179 468.056 698.887C461.631 697.621 473.897 703.073 468.738 699.081C468.348 698.789 463.481 696.453 463.578 696.063C463.773 694.992 470.003 703.073 464.746 696.453C460.95 691.682 469.224 705.214 466.888 699.665C466.401 698.594 465.33 697.037 464.649 696.063C466.985 705.701 460.463 690.417 464.649 696.063C464.162 694.311 463.967 692.169 463.286 690.514C461.436 686.328 464.259 695.674 463.967 696.355C464.844 694.408 463.967 685.355 463.967 683.213C463.675 678.345 463.578 688.47 463.189 688.762C463.578 688.373 464.162 683.894 464.454 682.921C465.038 680.779 469.419 670.168 465.914 677.372C462.41 684.576 467.667 674.354 468.835 672.407C469.224 671.725 472.242 667.539 472.145 667.345C472.729 668.708 464.844 675.23 470.198 670.265C471.561 669 473.118 667.442 474.384 666.079C477.012 663.256 477.694 665.495 474.092 666.079L471.561 668.123C473.118 667.053 474.676 666.079 476.331 665.106C477.888 664.132 479.543 663.256 481.198 662.38C489.668 657.512 480.225 662.38 479.738 662.866C480.711 661.893 485.968 660.822 486.747 660.627C488.499 660.141 490.349 659.654 492.101 659.264C503.004 656.831 492.101 659.264 492.004 658.972C492.004 658.291 516.244 658.486 518.386 659.167C517.12 658.778 507.483 657.025 516.731 659.167C518.58 659.556 520.527 659.946 522.377 660.335C527.342 661.504 532.307 662.866 537.174 664.521C539.608 665.3 541.944 666.274 544.378 667.15C549.83 669.097 541.555 665.982 541.555 665.982C544.475 665.592 553.432 671.92 555.963 673.38C564.919 678.443 573.583 684.089 581.955 690.125C583.61 691.293 585.265 692.559 586.92 693.824C585.362 692.559 579.424 688.47 586.92 693.824C590.716 696.842 594.416 699.86 598.212 702.975C606.195 709.595 614.08 716.41 621.966 723.224C639.586 738.314 657.498 753.111 676.481 766.351C712.695 791.565 756.21 809.575 800.991 808.796C841.878 808.115 882.278 793.22 914.987 768.882C947.697 744.544 975.344 713.002 993.743 676.009C1005.04 653.229 1000.56 622.271 976.317 609.42C954.317 597.836 921.802 602.508 909.73 626.846C905.739 634.927 901.261 642.812 896.296 650.405C894.057 653.813 891.916 658.096 888.995 660.822C896.102 654.299 891.721 657.415 889.871 659.556C887.827 661.796 885.977 664.229 883.933 666.468C877.897 673.186 871.375 679.611 864.463 685.549C863.1 686.718 861.64 687.788 860.277 689.054C855.117 693.532 867.286 684.381 861.542 687.983C856.967 690.806 852.684 694.019 848.108 696.842C844.506 698.984 840.904 700.931 837.205 702.781C836.718 703.073 832.532 704.63 832.435 705.02C832.727 703.267 841.196 701.71 834.285 704.143C829.904 705.701 825.523 707.259 820.948 708.427C818.027 709.206 809.85 712.613 807.319 711.445C807.514 711.542 819.682 710.569 809.85 711.055C807.514 711.153 805.177 711.348 802.841 711.445C798.752 711.542 794.566 711.445 790.477 711.25C789.699 711.25 785.61 711.25 785.123 710.763C786.097 711.932 793.301 712.613 786.194 710.666C780.45 709.108 774.609 707.94 768.963 706.091C765.556 704.922 755.237 700.347 763.901 704.436C759.034 702.196 754.263 699.86 749.591 697.232C740.732 692.364 732.262 686.912 723.988 681.071C721.749 679.514 719.607 677.956 717.368 676.301C716.2 675.425 709.483 670.168 714.253 673.965C718.731 677.469 713.474 673.283 712.793 672.796C710.748 671.141 708.607 669.389 706.562 667.734C697.995 660.627 689.623 653.423 681.251 646.219C645.329 615.456 608.531 585.959 563.166 570.675C517.802 555.39 465.817 556.851 425.709 582.065C388.716 605.332 364.184 649.335 366.521 693.532C369.246 744.155 403.221 786.308 454.135 795.849C500.473 804.513 546.325 795.751 588.477 775.502C667.233 737.73 718.828 659.264 743.263 577.684C756.697 533 762.635 486.271 766.627 439.931C770.034 401.088 772.857 361.856 772.176 322.915C770.618 242.308 750.369 158.683 679.791 111.078C601.425 58.1188 496.287 86.2534 428.727 142.523C361.166 198.792 324.076 282.806 288.836 360.103C250.188 444.896 216.213 531.831 187.884 620.616C131.811 796.335 97.6414 979.259 85.278 1163.25C82.2602 1208.42 73.5961 1263.04 99.7831 1303.34C125.97 1343.65 178.052 1358.35 223.514 1343.06C268.976 1327.78 300.712 1289.13 313.173 1242.3C324.855 1198.49 322.713 1151.08 322.129 1106.11C319.793 909.653 293.119 715.047 249.993 523.654C239.382 476.828 228.674 429.904 219.815 382.689C217.868 372.077 215.921 361.466 214.169 350.757C213.195 344.722 212.222 338.589 211.248 332.553C210.859 330.314 210.567 327.977 210.275 325.738C209.788 322.233 208.912 315.516 209.788 322.72C206.673 299.259 204.434 275.699 203.266 252.14C202.097 228.581 202 206.677 203.071 183.994C203.655 172.702 204.531 161.311 205.699 150.019C205.991 147.001 206.381 143.983 206.77 140.965C206.673 141.841 205.602 148.364 206.575 142.62C207.744 135.903 208.717 129.088 209.983 122.371C211.832 112.636 213.682 102.803 216.797 93.3601C220.302 82.8461 213.293 98.4224 217.771 91.3157C219.718 88.1031 222.346 86.4481 215.532 93.3601C220.107 88.7846 214.266 93.7495 212.319 94.9177C219.036 90.6342 209.885 95.7939 208.814 96.1833C205.505 97.1568 200.637 97.5462 197.133 96.4753C195.672 96.0859 187.69 91.8998 195.964 96.1833C196.84 96.5727 202.681 99.7853 197.23 96.67C191.778 93.5548 197.814 97.2541 199.177 98.5197C200.929 100.077 202.487 101.635 204.142 103.29C205.31 104.556 206.478 105.821 207.646 107.087C215.045 114.972 204.336 101.44 207.354 106.697C209.399 110.202 211.735 113.415 213.682 116.919C214.753 118.964 215.726 121.008 216.894 123.052C221.178 131.132 216.7 121.592 216.213 121.008C221.178 126.849 222.735 140.673 224.293 148.072C225.169 152.16 225.753 156.347 226.532 160.435C227.798 167.347 225.753 151.187 226.24 158.196C226.337 159.949 226.629 161.798 226.824 163.551C227.7 173.091 227.992 182.631 227.895 192.075C227.798 201.518 227.408 210.279 226.727 219.333C226.435 223.519 226.045 227.803 225.559 231.989C225.267 234.228 225.267 236.954 224.682 239.193C227.408 227.413 225.072 235.98 224.682 238.803C221.762 257.3 217.576 275.699 212.222 293.612C209.788 301.692 207.16 309.772 204.239 317.755C202.584 322.331 200.832 326.809 199.08 331.287C196.451 337.907 200.54 331.287 199.761 329.73C200.15 330.606 197.23 335.376 196.84 336.349C189.15 353.483 180.291 370.13 170.459 386.193C165.689 393.982 160.724 401.575 155.467 408.974C153.033 412.478 150.502 415.886 147.971 419.293C146.998 420.559 142.033 426.692 146.219 421.629C150.794 415.983 143.396 425.037 143.201 425.231C131.714 439.25 119.35 452.685 106.111 465.146C99.491 471.376 92.7739 477.412 85.7648 483.253C82.5523 485.979 79.3397 488.802 75.8351 491.236C86.0568 484.032 73.2067 493.085 71.1624 494.546C56.3652 505.157 40.8867 514.6 24.824 523.167C2.33631 535.141 -6.52249 568.241 7.39848 589.755C22.1956 612.633 49.9402 620.032 73.9855 607.181L73.2067 607.279Z" fill="#277857"></path>
</g>
<defs>
<clipPath id="clip0_84_1925">
<rect width="999" height="1349" fill="white"></rect>
</clipPath>
<clipPath id="SvgjsClipPath1059"><rect width="1000" height="1000" x="0" y="0" rx="350" ry="350"></rect></clipPath></defs>
</svg></svg></g></g></svg></g></svg>