<svg width="192" height="192" viewBox="0 0 16 16" fill="none" xmlns="http://www.w3.org/2000/svg">
<g clip-path="url(#clip0_120_2213)">
<path d="M35.5108 86.8829C55.3578 76.3394 68.4777 55.8374 71.0821 33.7058C72.4053 22.452 70.7339 8.45442 60.2464 1.86649C56.6391 -0.389845 51.9734 -0.724117 48.2825 1.54614C45.1627 3.4682 43.2964 6.88056 42.3215 10.3208C40.5248 16.658 40.0095 23.622 39.9677 30.196C39.8841 43.5529 42.4608 56.8541 45.3299 69.849C48.185 82.7602 51.1238 95.6296 53.1154 108.708C53.3661 110.379 53.6168 112.065 53.8536 113.75C53.8954 114.084 53.9511 114.418 53.9929 114.753C54.1461 115.909 53.8675 113.764 54.0207 114.92C54.1321 115.811 54.2575 116.717 54.3689 117.608C54.7728 120.867 55.1349 124.126 55.4414 127.399C56.096 134.154 56.5695 140.937 56.848 147.72C57.1266 154.503 57.2798 160.785 57.1127 167.317C57.0848 168.626 57.0152 169.935 56.8898 171.231C56.862 171.454 56.8898 171.857 56.8063 172.066C57.2659 171.091 56.9455 171.272 56.8063 171.871C56.6531 172.596 56.5277 173.306 56.3327 174.016C56.1656 174.629 55.9288 175.228 55.7617 175.827C55.4831 176.774 56.3327 174.81 55.8313 175.66C55.6921 175.897 55.5946 176.147 55.4553 176.384C55.2881 176.704 55.0653 176.997 54.8982 177.317C54.3828 178.292 55.0932 177.262 55.0792 177.15C55.1071 177.387 53.784 178.334 53.8257 178.404C53.7561 178.32 55.0235 177.652 54.3411 177.986C54.0764 178.111 53.8397 178.32 53.589 178.459C53.394 178.571 53.199 178.668 53.004 178.78C51.8759 179.448 53.3801 178.515 53.4358 178.613C53.4358 178.613 52.1266 179.003 51.9455 179.058C51.6809 179.142 50.6781 179.309 51.7923 179.114C52.9065 178.919 51.9037 179.086 51.6391 179.072C51.3745 179.058 51.0541 179.016 50.7895 179.044C50.0931 179.114 51.5416 179.072 51.5973 179.156C51.5695 179.128 50.9149 178.975 50.7895 178.961C49.8564 178.766 51.1516 178.626 51.3048 179.198C51.2909 179.128 50.8452 178.933 50.7756 178.891C50.0374 178.39 51.9037 179.782 51.1934 179.225C51.1516 179.197 50.7338 178.794 50.7477 178.766C50.6502 178.891 51.7366 179.991 50.8452 178.724C50.3438 178.028 51.1377 179.17 51.0263 179.184C50.9566 179.184 50.7756 178.292 50.7338 178.167C50.3577 177.08 50.7338 178.431 50.7199 178.418C50.6502 178.362 50.6642 177.693 50.6502 177.596C50.5667 176.189 50.6224 174.796 50.692 173.39C50.8313 170.214 51.0263 167.038 51.263 163.863C51.4998 160.687 51.7923 157.526 52.1266 154.35C52.2798 152.874 52.4469 151.397 52.628 149.921C52.7115 149.183 52.809 148.445 52.9065 147.706C52.9483 147.386 52.9901 147.08 53.0319 146.759C53.2965 144.74 52.9065 147.567 53.0736 146.397C53.9511 140.199 54.9539 134.029 56.1656 127.873C58.589 115.588 61.7367 103.457 65.5668 91.5348C67.5167 85.4761 69.6476 79.4732 71.9596 73.5399C72.5028 72.161 73.0459 70.7821 73.603 69.4033C73.8816 68.7208 74.1602 68.0244 74.4526 67.3419C74.578 67.0494 74.7033 66.7569 74.8148 66.4645C75.5947 64.5842 74.5083 67.1608 74.9819 66.0745C76.2354 63.1496 77.5167 60.2386 78.8538 57.3416C81.319 51.9794 83.8538 46.6171 86.8761 41.5334C87.5586 40.3773 88.2689 39.2492 89.021 38.1349C89.397 37.5778 89.7731 37.0346 90.1631 36.4914C90.3302 36.2547 90.5113 36.0318 90.6645 35.809C89.8149 36.9928 90.6087 35.8925 90.8037 35.6558C91.6951 34.5555 92.6422 33.4969 93.645 32.4941C94.0489 32.0902 94.4528 31.7002 94.8706 31.3242C95.1492 31.0735 95.4277 30.8228 95.7202 30.5721C95.8595 30.4606 97.0851 29.4578 96.347 30.0428C95.7063 30.5442 96.4166 30.001 96.5141 29.9314C96.8066 29.7364 97.099 29.5275 97.3915 29.3325C97.9069 28.9843 98.45 28.6639 98.9793 28.3575C99.5085 28.0511 100.08 27.7586 100.637 27.494C100.929 27.3547 101.319 27.1179 101.612 27.0483C101.124 27.1597 100.651 27.4243 101.444 27.1458C102.628 26.7419 103.812 26.3658 105.038 26.1012C105.386 26.0315 105.734 25.9758 106.082 25.9062C107.183 25.6833 105.873 26.1012 105.804 25.934C105.832 26.0037 107.74 25.8087 107.907 25.8087C108.52 25.8087 109.119 25.8087 109.731 25.8644C109.843 25.8644 110.442 25.9897 110.511 25.934C110.177 26.2126 109.202 25.6694 110.191 25.9062C110.776 26.0455 111.361 26.1569 111.946 26.324C112.28 26.4215 112.601 26.519 112.921 26.6304C113.088 26.6861 113.241 26.7419 113.408 26.8115C113.882 26.9926 113.729 26.9368 112.935 26.6165C112.949 26.5886 114.202 27.285 114.314 27.3408C114.62 27.5218 114.899 27.7307 115.205 27.8979C115.679 28.1625 115.818 28.65 114.94 27.6472C115.679 28.4968 116.654 29.2071 117.42 30.0428C118.478 31.171 116.96 29.235 117.573 30.2517C117.851 30.6974 118.158 31.1431 118.422 31.5888C118.687 32.0345 118.938 32.522 119.174 32.9955C119.174 32.9677 119.592 33.7755 119.564 33.8312C119.606 33.7476 119.021 32.4105 119.383 33.4551C120.191 35.7254 120.748 38.0096 121.152 40.3773C121.361 41.6448 121.013 39.0681 121.194 40.7116C121.25 41.2827 121.305 41.8676 121.347 42.4387C121.445 43.7618 121.5 45.085 121.528 46.4221C121.57 48.8038 121.5 51.1855 121.375 53.5671C121.208 56.5895 121.027 59.598 120.762 62.6064C120.637 64.041 120.498 65.4895 120.33 66.9241C120.275 67.3837 120.024 69.2222 120.233 67.8294C120.122 68.6372 119.996 69.459 119.857 70.2668C119.355 73.2892 118.687 76.2837 117.796 79.2225C117.378 80.5874 116.89 81.9245 116.389 83.2616C116.291 83.5123 115.846 84.4733 116.389 83.2894C116.264 83.568 116.138 83.8466 116.013 84.1251C115.665 84.8772 115.303 85.6154 114.913 86.3397C114.342 87.4121 113.701 88.4567 113.032 89.4595C112.698 89.961 112.322 90.4484 111.974 90.9498C111.514 91.6184 112.266 90.5877 112.266 90.5738C112.238 90.7966 111.612 91.3816 111.431 91.5766C110.637 92.5098 109.801 93.3872 108.924 94.2368C108.492 94.6547 108.032 95.0725 107.573 95.4625C107.392 95.6157 107.016 96.0196 106.779 96.131C107.197 95.95 107.656 95.4904 106.96 95.9918C105.915 96.7439 104.857 97.4403 103.729 98.067C103.213 98.3595 102.684 98.6242 102.155 98.8888C101.932 99.0002 101.695 99.0977 101.458 99.2091C100.692 99.5713 102.726 98.7774 101.486 99.1813C100.358 99.5295 99.2578 99.9195 98.1018 100.17C97.8233 100.226 96.0127 100.407 97.0294 100.379C98.0461 100.351 96.9598 100.365 96.6951 100.379C96.2773 100.407 95.8456 100.435 95.4277 100.435C94.801 100.435 94.1603 100.365 93.5336 100.379C92.684 100.393 93.9235 100.463 93.9514 100.463C93.7146 100.504 93.0879 100.296 92.8232 100.226C92.5586 100.156 92.2801 100.031 92.0015 99.9891C91.0823 99.808 92.8372 100.588 92.099 100.017C92.0433 99.9752 91.3469 99.6409 91.3608 99.5852C91.3887 99.432 92.2801 100.588 91.528 99.6409C90.9848 98.9584 92.1686 100.894 91.8344 100.101C91.7647 99.9473 91.6115 99.7245 91.514 99.5852C91.8483 100.964 90.9152 98.7774 91.514 99.5852C91.4444 99.3345 91.4166 99.0281 91.3191 98.7913C91.0544 98.1924 91.4583 99.5295 91.4166 99.627C91.5419 99.3484 91.4166 98.0531 91.4166 97.7467C91.3748 97.0503 91.3608 98.4988 91.3051 98.5406C91.3608 98.4849 91.4444 97.8442 91.4862 97.7049C91.5698 97.3985 92.1965 95.8803 91.6951 96.911C91.1937 97.9417 91.9458 96.4792 92.1129 96.2007C92.1686 96.1032 92.6004 95.5043 92.5865 95.4764C92.67 95.6714 91.5419 96.6046 92.3079 95.8943C92.5029 95.7132 92.7258 95.4904 92.9068 95.2954C93.2829 94.8915 93.3804 95.2118 92.865 95.2954L92.5029 95.5878C92.7258 95.4346 92.9486 95.2954 93.1854 95.1561C93.4082 95.0168 93.645 94.8915 93.8818 94.7661C95.0935 94.0697 93.7425 94.7661 93.6728 94.8357C93.8121 94.6965 94.5642 94.5433 94.6756 94.5154C94.9263 94.4458 95.191 94.3761 95.4417 94.3204C97.0016 93.9722 95.4417 94.3204 95.4277 94.2786C95.4277 94.1811 98.8957 94.209 99.2021 94.3065C99.0211 94.2508 97.6422 94.0001 98.9654 94.3065C99.23 94.3622 99.5085 94.4179 99.7732 94.4736C100.483 94.6408 101.194 94.8357 101.89 95.0725C102.238 95.1839 102.573 95.3232 102.921 95.4486C103.701 95.7271 102.517 95.2814 102.517 95.2814C102.935 95.2257 104.216 96.131 104.578 96.34C105.86 97.0642 107.099 97.872 108.297 98.7356C108.534 98.9027 108.77 99.0838 109.007 99.2648C108.784 99.0838 107.935 98.4988 109.007 99.2648C109.55 99.6966 110.08 100.128 110.623 100.574C111.765 101.521 112.893 102.496 114.021 103.471C116.542 105.63 119.105 107.747 121.821 109.641C127.002 113.249 133.227 115.825 139.634 115.714C145.484 115.616 151.264 113.485 155.943 110.003C160.623 106.521 164.579 102.009 167.211 96.716C168.827 93.4569 168.186 89.0278 164.718 87.1893C161.57 85.5319 156.918 86.2004 155.191 89.6824C154.62 90.8384 153.98 91.9666 153.269 93.053C152.949 93.5404 152.643 94.1533 152.225 94.5433C153.242 93.6101 152.615 94.0558 152.35 94.3622C152.058 94.6825 151.793 95.0307 151.501 95.3511C150.637 96.3121 149.704 97.2314 148.715 98.081C148.52 98.2481 148.311 98.4013 148.116 98.5824C147.378 99.2231 149.119 97.9138 148.297 98.4292C147.643 98.8331 147.03 99.2927 146.375 99.6966C145.86 100.003 145.345 100.282 144.815 100.546C144.746 100.588 144.147 100.811 144.133 100.867C144.175 100.616 145.386 100.393 144.397 100.741C143.771 100.964 143.144 101.187 142.489 101.354C142.072 101.465 140.902 101.953 140.539 101.786C140.567 101.8 142.308 101.66 140.902 101.73C140.567 101.744 140.233 101.772 139.899 101.786C139.314 101.8 138.715 101.786 138.13 101.758C138.019 101.758 137.434 101.758 137.364 101.688C137.503 101.855 138.534 101.953 137.517 101.674C136.695 101.452 135.86 101.284 135.052 101.02C134.565 100.853 133.088 100.198 134.328 100.783C133.631 100.463 132.949 100.128 132.28 99.7523C131.013 99.0559 129.801 98.276 128.617 97.4403C128.297 97.2174 127.991 96.9946 127.67 96.7578C127.503 96.6325 126.542 95.8803 127.225 96.4235C127.865 96.9249 127.113 96.326 127.016 96.2564C126.723 96.0196 126.417 95.7689 126.124 95.5321C124.899 94.5154 123.701 93.4847 122.503 92.4541C117.364 88.0528 112.099 83.8326 105.609 81.6459C99.1186 79.4593 91.6812 79.6682 85.943 83.2755C80.6505 86.6043 77.1407 92.8998 77.4749 99.2231C77.8649 106.466 82.7257 112.496 90.0099 113.861C96.6394 115.101 103.199 113.847 109.23 110.95C120.498 105.546 127.879 94.3204 131.375 82.6488C133.297 76.2558 134.147 69.5704 134.718 62.9407C135.205 57.3834 135.609 51.7704 135.512 46.1992C135.289 34.6669 132.392 22.7027 122.294 15.892C111.082 8.31514 96.0405 12.3403 86.3747 20.3907C76.7089 28.4411 71.4025 40.4609 66.3607 51.5197C60.8314 63.651 55.9706 76.0887 51.9176 88.791C43.8953 113.931 39.0067 140.102 37.2379 166.426C36.8061 172.888 35.5665 180.702 39.3131 186.468C43.0596 192.234 50.511 194.337 57.0152 192.151C63.5194 189.964 68.0598 184.434 69.8426 177.735C71.5139 171.467 71.2075 164.685 71.1239 158.25C70.7897 130.143 66.9735 102.301 60.8035 74.9187C59.2854 68.2194 57.7533 61.5061 56.4859 54.751C56.2074 53.2329 55.9288 51.7147 55.6781 50.1826C55.5388 49.3191 55.3996 48.4416 55.2603 47.5781C55.2046 47.2578 55.1628 46.9235 55.121 46.6032C55.0514 46.1017 54.926 45.1407 55.0514 46.1714C54.6057 42.8147 54.2854 39.4442 54.1182 36.0736C53.9511 32.703 53.9372 29.5692 54.0904 26.324C54.1739 24.7084 54.2993 23.0788 54.4664 21.4632C54.5082 21.0314 54.5639 20.5996 54.6196 20.1679C54.6057 20.2932 54.4525 21.2264 54.5918 20.4046C54.7589 19.4436 54.8982 18.4686 55.0792 17.5076C55.3439 16.1148 55.6085 14.7081 56.0542 13.3571C56.5556 11.8528 55.5528 14.0813 56.1934 13.0646C56.472 12.605 56.848 12.3682 55.8731 13.3571C56.5277 12.7025 55.692 13.4128 55.4135 13.5799C56.3745 12.9671 55.0653 13.7053 54.9121 13.761C54.4386 13.9003 53.7422 13.956 53.2408 13.8028C53.0319 13.7471 51.8898 13.1481 53.0736 13.761C53.199 13.8167 54.0347 14.2763 53.2547 13.8306C52.4748 13.3849 53.3383 13.9142 53.5333 14.0953C53.784 14.3181 54.0068 14.5409 54.2436 14.7777C54.4107 14.9588 54.5778 15.1399 54.745 15.3209C55.8035 16.4491 54.2714 14.5131 54.7032 15.2652C54.9957 15.7666 55.3299 16.2262 55.6085 16.7276C55.7617 17.0201 55.901 17.3126 56.0681 17.6051C56.6809 18.7611 56.0402 17.3962 55.9706 17.3126C56.6809 18.1483 56.9038 20.1261 57.1266 21.1846C57.252 21.7696 57.3355 22.3685 57.4469 22.9534C57.628 23.9423 57.3355 21.6303 57.4052 22.6331C57.4191 22.8838 57.4609 23.1484 57.4887 23.3991C57.6141 24.7641 57.6559 26.129 57.6419 27.48C57.628 28.8311 57.5723 30.0846 57.4748 31.3799C57.433 31.9788 57.3773 32.5916 57.3077 33.1905C57.2659 33.5109 57.2659 33.9008 57.1823 34.2212C57.5723 32.5359 57.238 33.7616 57.1823 34.1655C56.7645 36.8118 56.1656 39.4442 55.3996 42.0069C55.0514 43.1629 54.6753 44.319 54.2575 45.4611C54.0207 46.1157 53.77 46.7564 53.5193 47.397C53.1433 48.3441 53.7282 47.397 53.6168 47.1742C53.6725 47.2996 53.2547 47.982 53.199 48.1213C52.0987 50.5726 50.8313 52.9543 49.4246 55.2524C48.7421 56.3667 48.0318 57.453 47.2797 58.5116C46.9315 59.013 46.5694 59.5005 46.2073 59.9879C46.068 60.169 45.3577 61.0465 45.9566 60.3222C46.6112 59.5144 45.5527 60.8097 45.5248 60.8375C43.8814 62.8432 42.1126 64.7652 40.2184 66.548C39.2713 67.4394 38.3103 68.3029 37.3075 69.1386C36.8479 69.5286 36.3883 69.9325 35.8869 70.2807C37.3493 69.25 35.5108 70.5453 35.2184 70.7543C33.1014 72.2724 30.8868 73.6234 28.5888 74.8491C25.3715 76.5622 24.1041 81.2977 26.0957 84.3758C28.2127 87.6489 32.1821 88.7074 35.6223 86.8689L35.5108 86.8829Z" fill="black"/>
</g>
<defs>
<clipPath id="clip0_120_2213">
<rect width="192" height="192" fill="white"/>
</clipPath>
</defs>
</svg>
